<svg width="1080" height="1080" viewBox="0 0 1080 1080" fill="none" xmlns="http://www.w3.org/2000/svg">
<path fill-rule="evenodd" clip-rule="evenodd" d="M726.792 173.927C726.792 92.6199 655.615 46.7605 575.307 36.323C575.833 36.6824 576.354 37.047 576.875 37.4272C604.979 57.8022 626.938 103.427 626.938 173.927C626.938 177.667 626.912 184.521 626.849 196.042C626.823 200.162 626.792 204.12 626.755 207.953C658.646 214.365 691.63 225.083 724.734 241.682C726.339 221.969 726.792 201.224 726.792 173.927ZM503.557 36.323C423.25 46.7553 352.073 92.6199 352.073 173.927C352.073 201.224 352.526 221.964 354.13 241.677C364.802 236.573 400.948 220.443 452.13 209.813C452.083 205.729 452.052 201.484 452.021 197.052C451.953 185.479 451.927 178.302 451.927 173.927C451.927 103.427 473.885 57.8022 501.99 37.4272C502.511 37.047 503.031 36.6824 503.557 36.323ZM470.682 206.339C510.5 199.682 557.693 197 608.198 204.688C608.224 201.839 608.25 198.938 608.266 195.969C608.276 193.698 608.281 185.938 608.281 173.927C608.281 110.104 589.714 69.7501 565.943 52.5209C557.5 46.3959 548.427 43.3334 539.432 43.3334C530.438 43.3334 521.365 46.3959 512.922 52.5209C489.151 69.7501 470.583 110.104 470.583 173.927C470.583 186.068 470.589 194.167 470.604 196.979C470.625 200.167 470.651 203.281 470.682 206.339ZM356.094 260.854C358.537 280.63 362.375 301.193 368.328 328.182C373.912 353.521 393.703 367.886 411.932 351.578C496.089 276.287 581.151 276.896 666.932 351.578C685.333 367.594 704.953 353.521 710.542 328.182C716.49 301.182 720.328 280.62 722.776 260.839C721.698 260.719 720.62 260.401 719.594 259.88C684.693 241.969 649.896 230.969 616.443 224.854C615.948 224.807 615.469 224.719 615.005 224.599C559.083 214.594 506.995 218.224 464.609 226.203C463.776 226.495 462.88 226.672 461.953 226.714C400.021 238.745 359.479 259.792 359.234 259.917C358.219 260.427 357.156 260.734 356.094 260.854Z" fill="black"/>
<path fill-rule="evenodd" clip-rule="evenodd" d="M688.193 551.417C704.026 551.417 719.521 553.318 734.542 556.917L539.787 816.287L345.037 556.917C360.057 553.318 375.547 551.417 391.386 551.417H417.75C417.75 629.932 472.229 693.578 539.432 693.578C606.63 693.578 661.109 629.932 661.109 551.417H688.193ZM753.099 562.302C856.958 597.823 933.818 716.287 933.818 855.938V1079.27H145.76V855.938C145.76 716.281 222.615 597.818 326.479 562.302C326.787 563.266 327.255 564.193 327.896 565.047L529.068 832.969C507.719 837.844 491.781 856.958 491.781 879.797V1024.2H513.636C521.464 984.24 517.729 934.37 550.802 926.552C571.693 921.615 587.792 902.896 587.792 879.797C587.792 856.958 571.859 837.844 550.505 832.969L751.677 565.052C752.318 564.193 752.792 563.266 753.099 562.302Z" fill="black"/>
<path d="M388.125 285.932C387.49 278.229 380.734 272.5 373.037 273.136C365.339 273.771 359.615 280.526 360.25 288.229C370.641 410.219 402.589 499.557 457.656 538.089C483.323 556.047 511.318 565.031 539.427 565.031V565.083C567.484 565.083 595.484 556.083 621.203 538.083C676.271 499.552 709.354 410.906 719.75 288.912C720.38 281.214 714.656 274.453 706.958 273.818C699.261 273.188 692.505 278.912 691.87 286.615C682.25 399.521 654.047 481.073 605.245 515.229C584.422 529.797 561.891 537.083 539.427 537.083V537.141C517.016 537.141 494.49 529.833 473.615 515.229C424.813 481.078 397.745 398.828 388.125 285.932Z" fill="black"/>
<path d="M661.776 494.224C661.687 486.526 655.375 480.354 647.677 480.448C639.979 480.536 633.812 486.854 633.901 494.552C634.031 503.75 635.026 513.625 637.292 523.979C639.38 533.526 642.542 543.646 647.088 554.234C646.463 588.953 634.271 620.198 614.87 642.865C595.448 665.547 568.771 679.578 539.427 679.578C510.088 679.578 483.406 665.547 463.99 642.865C444.588 620.198 432.396 588.953 431.771 554.234C435.99 544.401 439.016 534.974 441.094 526.036C443.693 514.864 444.818 504.302 444.958 494.552C445.047 486.854 438.88 480.536 431.182 480.448C423.484 480.354 417.172 486.526 417.083 494.224C416.974 501.88 416.042 510.391 413.875 519.687C412.021 527.661 409.26 536.104 405.344 544.943C404.328 546.88 403.755 549.083 403.755 551.417C403.755 594.088 418.672 632.849 442.786 661.016C467.406 689.781 501.568 707.578 539.427 707.578C577.292 707.578 611.453 689.781 636.073 661.016C660.115 632.927 675.016 594.312 675.099 551.792C675.156 549.75 674.766 547.661 673.87 545.672L661.109 551.417L673.844 545.677C669.479 535.969 666.516 526.734 664.62 518.073C662.713 509.349 661.88 501.385 661.776 494.224Z" fill="black"/>
<path fill-rule="evenodd" clip-rule="evenodd" d="M520.38 27.823C526.625 25.7188 533.021 24.672 539.432 24.672C545.844 24.672 552.234 25.7188 558.484 27.823V19.7761C558.484 9.29175 549.911 0.713623 539.432 0.713623C528.953 0.713623 520.38 9.29175 520.38 19.7761V27.823Z" fill="black"/>
</svg>
