<svg width="50" height="50" viewBox="0 0 50 50" fill="none" xmlns="http://www.w3.org/2000/svg">
<circle cx="25" cy="25" r="25" fill="#56042C"/>
<path d="M32.1875 16.25H19.0625C18.3166 16.25 17.6012 16.5411 17.0738 17.0593C16.5463 17.5775 16.25 18.2803 16.25 19.0132V32.8289C16.2503 32.9922 16.2947 33.1524 16.3787 33.2932C16.4627 33.434 16.5833 33.5503 16.7281 33.6303C16.8682 33.7083 17.0264 33.7495 17.1875 33.75C17.3558 33.75 17.5209 33.7054 17.6656 33.6211L21.875 31.1158C22.0306 31.0248 22.2097 30.98 22.3906 30.9868H32.1875C32.9334 30.9868 33.6488 30.6957 34.1762 30.1775C34.7037 29.6593 35 28.9565 35 28.2237V19.0132C35 18.2803 34.7037 17.5775 34.1762 17.0593C33.6488 16.5411 32.9334 16.25 32.1875 16.25ZM21.875 24.5395C21.6896 24.5395 21.5083 24.4855 21.3542 24.3842C21.2 24.283 21.0798 24.1392 21.0089 23.9709C20.9379 23.8026 20.9193 23.6174 20.9555 23.4387C20.9917 23.2601 21.081 23.096 21.2121 22.9671C21.3432 22.8383 21.5102 22.7506 21.6921 22.7151C21.874 22.6795 22.0625 22.6978 22.2338 22.7675C22.4051 22.8372 22.5515 22.9552 22.6545 23.1067C22.7575 23.2582 22.8125 23.4363 22.8125 23.6184C22.8125 23.8627 22.7137 24.097 22.5379 24.2697C22.3621 24.4424 22.1236 24.5395 21.875 24.5395V24.5395ZM25.625 24.5395C25.4396 24.5395 25.2583 24.4855 25.1042 24.3842C24.95 24.283 24.8298 24.1392 24.7589 23.9709C24.6879 23.8026 24.6693 23.6174 24.7055 23.4387C24.7417 23.2601 24.831 23.096 24.9621 22.9671C25.0932 22.8383 25.2602 22.7506 25.4421 22.7151C25.624 22.6795 25.8125 22.6978 25.9838 22.7675C26.1551 22.8372 26.3015 22.9552 26.4045 23.1067C26.5075 23.2582 26.5625 23.4363 26.5625 23.6184C26.5625 23.8627 26.4637 24.097 26.2879 24.2697C26.1121 24.4424 25.8736 24.5395 25.625 24.5395ZM29.375 24.5395C29.1896 24.5395 29.0083 24.4855 28.8542 24.3842C28.7 24.283 28.5798 24.1392 28.5089 23.9709C28.4379 23.8026 28.4193 23.6174 28.4555 23.4387C28.4917 23.2601 28.581 23.096 28.7121 22.9671C28.8432 22.8383 29.0102 22.7506 29.1921 22.7151C29.374 22.6795 29.5625 22.6978 29.7338 22.7675C29.9051 22.8372 30.0515 22.9552 30.1545 23.1067C30.2575 23.2582 30.3125 23.4363 30.3125 23.6184C30.3125 23.8627 30.2137 24.097 30.0379 24.2697C29.8621 24.4424 29.6236 24.5395 29.375 24.5395Z" fill="white"/>
</svg>
