<svg width="145" height="90" viewBox="0 0 145 90" fill="none" xmlns="http://www.w3.org/2000/svg">
<path fill-rule="evenodd" clip-rule="evenodd" d="M24.3957 30.7181C23.3469 30.4472 22.5637 30.9687 22.3387 31.6146C22.2639 31.8293 22.0292 31.9428 21.8144 31.868C21.5997 31.7931 21.4862 31.5584 21.561 31.3437C21.9417 30.251 23.1825 29.5542 24.6017 29.9208C25.3533 30.115 25.8557 30.5765 26.1345 31.0902C26.3622 31.5096 26.4502 31.9839 26.3846 32.3855C29.3382 32.7063 31.6377 33.6483 33.4218 34.9503C35.6409 36.5695 37.033 38.7238 37.9033 40.8601C38.7729 42.9947 39.1266 45.1228 39.264 46.7125C39.3328 47.5085 39.3476 48.1727 39.3451 48.6393C39.3439 48.8726 39.3383 49.0568 39.333 49.1836C39.3304 49.247 39.3278 49.2961 39.3258 49.3299L39.3234 49.3689L39.3226 49.3795L39.3224 49.3825L39.3223 49.3835C39.3223 49.3838 39.3223 49.3841 38.9117 49.3537L39.3223 49.3841C39.3055 49.6109 39.108 49.7811 38.8812 49.7643C38.6545 49.7475 38.4843 49.5501 38.501 49.3234L38.501 49.3232L38.5011 49.3217L38.5016 49.3143L38.5037 49.2817C38.5054 49.2524 38.5077 49.2078 38.5102 49.1491C38.5151 49.0316 38.5204 48.8575 38.5216 48.6349C38.524 48.1895 38.5098 47.5508 38.4435 46.7834C38.3107 45.2462 37.9695 43.2053 37.1406 41.1708C36.3124 39.1379 35.0023 37.1231 32.9364 35.6155C30.8738 34.1103 28.0279 33.089 24.0882 33.0889C24.0882 33.0889 15.4412 33.0889 14.6176 41.1184C14 47.1404 24.2941 47.2948 24.2941 47.2948L24.2891 47.2959C27.8852 47.3333 30.9698 48.3708 33.3196 49.6619C35.7009 50.9703 37.3623 52.559 38.0298 53.6713C38.6467 54.6993 38.7513 55.9397 38.5477 57.0182C38.3465 58.084 37.8254 59.0826 37.0818 59.5784C36.2064 60.1621 35.2556 60.1872 34.2891 59.9399C33.3392 59.6969 32.3284 59.1792 31.2906 58.6251C31.1715 58.5615 31.0518 58.4974 30.9316 58.4329C28.9155 57.3519 26.7325 56.1814 24.2887 56.1478C21.736 56.1128 19.2481 57.3262 16.9894 58.4278C16.7198 58.5593 16.4535 58.6892 16.1907 58.8152C14.9884 59.3917 13.8336 59.8975 12.8211 60.0164C12.3056 60.077 11.8035 60.0408 11.3398 59.8469C10.872 59.6513 10.476 59.3088 10.1543 58.8117C9.3939 57.6365 9.59641 56.0969 9.91998 54.9507C10.0861 54.3622 10.2943 53.8422 10.4603 53.4701C10.5435 53.2836 10.6167 53.1331 10.6695 53.0285C10.6959 52.9761 10.7172 52.9351 10.7322 52.9067L10.7499 52.8738L10.7548 52.8646L10.7563 52.862L10.7567 52.8611L10.7569 52.8608C10.757 52.8607 10.757 52.8606 11.1175 53.0595L10.757 52.8606C10.8669 52.6615 11.1174 52.5891 11.3165 52.699C11.5156 52.8089 11.5879 53.0593 11.4781 53.2584L11.4781 53.2584L11.4781 53.2585L11.4775 53.2595L11.4742 53.2655L11.4601 53.2919C11.4475 53.3158 11.4286 53.3519 11.4048 53.3992C11.3571 53.4938 11.2897 53.6325 11.2124 53.8057C11.0574 54.153 10.8649 54.6346 10.7125 55.1745C10.399 56.2851 10.2927 57.5097 10.8457 58.3643C11.0902 58.7422 11.3637 58.9643 11.6575 59.0871C11.9553 59.2116 12.3066 59.2477 12.7251 59.1985C13.5807 59.098 14.616 58.6569 15.8346 58.0726C16.0919 57.9493 16.3564 57.8199 16.6274 57.6874L16.6275 57.6873L16.6275 57.6873C18.8603 56.5953 21.5362 55.2865 24.3 55.3244C25.473 55.3405 26.587 55.5964 27.6361 55.9688L27.5882 55.9419C27.5882 55.9419 32.7353 57.3831 32.7353 53.2653C32.7353 49.6819 25.5807 48.2775 24.7787 48.1313C24.5508 48.1227 24.3205 48.1184 24.0881 48.1184C20.4693 48.1184 17.3876 49.0233 14.9673 49.7341C14.4716 49.8796 14.0035 50.0171 13.5643 50.1369C12.9229 50.3119 12.333 50.4517 11.8106 50.5177C11.292 50.5833 10.8032 50.5815 10.3802 50.4431C9.93843 50.2984 9.59216 50.012 9.36758 49.5669C9.15179 49.1392 9.05883 48.5866 9.05882 47.9125C9.05879 45.5003 9.58073 41.6031 11.7242 38.2952C13.8855 34.9598 17.6708 32.2654 24.0881 32.2654C24.5946 32.2654 25.0846 32.2817 25.5588 32.3134C25.6083 32.1291 25.5872 31.8082 25.4108 31.483C25.2339 31.1571 24.9121 30.8515 24.3957 30.7181ZM37.78 55.4338L37.8141 55.8091C37.8083 55.6835 37.797 55.5581 37.78 55.4338Z" fill="white"/>
<path d="M62.548 53.312C61.604 53.312 60.7 53.164 59.836 52.868C58.98 52.572 58.228 52.144 57.58 51.584C56.94 51.024 56.48 50.36 56.2 49.592L59.308 48.44C59.404 48.712 59.604 48.968 59.908 49.208C60.212 49.44 60.592 49.632 61.048 49.784C61.504 49.928 62.004 50 62.548 50C63.068 50 63.556 49.924 64.012 49.772C64.476 49.612 64.848 49.392 65.128 49.112C65.416 48.832 65.56 48.504 65.56 48.128C65.56 47.752 65.412 47.44 65.116 47.192C64.82 46.944 64.44 46.748 63.976 46.604C63.512 46.452 63.036 46.336 62.548 46.256C61.34 46.08 60.256 45.796 59.296 45.404C58.344 45.004 57.592 44.456 57.04 43.76C56.488 43.056 56.212 42.164 56.212 41.084C56.212 40.044 56.504 39.136 57.088 38.36C57.68 37.584 58.456 36.98 59.416 36.548C60.384 36.116 61.428 35.9 62.548 35.9C63.476 35.9 64.372 36.048 65.236 36.344C66.1 36.64 66.852 37.068 67.492 37.628C68.14 38.188 68.604 38.86 68.884 39.644L65.776 40.772C65.68 40.5 65.48 40.248 65.176 40.016C64.872 39.784 64.492 39.596 64.036 39.452C63.58 39.308 63.084 39.236 62.548 39.236C62.036 39.228 61.548 39.304 61.084 39.464C60.628 39.624 60.252 39.844 59.956 40.124C59.668 40.404 59.524 40.724 59.524 41.084C59.524 41.556 59.66 41.912 59.932 42.152C60.212 42.392 60.58 42.564 61.036 42.668C61.492 42.772 61.996 42.864 62.548 42.944C63.684 43.112 64.732 43.412 65.692 43.844C66.652 44.268 67.42 44.836 67.996 45.548C68.58 46.252 68.872 47.112 68.872 48.128C68.872 49.168 68.58 50.076 67.996 50.852C67.412 51.628 66.64 52.232 65.68 52.664C64.72 53.096 63.676 53.312 62.548 53.312ZM71.2056 41H74.5176V53H71.2056V41ZM72.8856 39.62C72.4056 39.62 72.0016 39.46 71.6736 39.14C71.3456 38.82 71.1816 38.424 71.1816 37.952C71.1816 37.48 71.3456 37.084 71.6736 36.764C72.0016 36.444 72.4016 36.284 72.8736 36.284C73.3456 36.284 73.7416 36.444 74.0616 36.764C74.3896 37.084 74.5536 37.48 74.5536 37.952C74.5536 38.424 74.3936 38.82 74.0736 39.14C73.7616 39.46 73.3656 39.62 72.8856 39.62ZM85.1691 53.312C84.0331 53.312 82.9651 53.088 81.9651 52.64C80.9651 52.184 80.0851 51.556 79.3251 50.756C78.5731 49.956 77.9811 49.032 77.5491 47.984C77.1251 46.928 76.9131 45.8 76.9131 44.6C76.9131 43.392 77.1251 42.264 77.5491 41.216C77.9811 40.16 78.5731 39.236 79.3251 38.444C80.0851 37.644 80.9651 37.02 81.9651 36.572C82.9651 36.116 84.0331 35.888 85.1691 35.888C86.5291 35.888 87.7811 36.204 88.9251 36.836C90.0691 37.46 91.0171 38.296 91.7691 39.344L88.8171 40.94C88.3691 40.412 87.8291 39.992 87.1971 39.68C86.5651 39.36 85.8891 39.2 85.1691 39.2C84.4891 39.2 83.8491 39.34 83.2491 39.62C82.6491 39.9 82.1211 40.288 81.6651 40.784C81.2171 41.28 80.8651 41.852 80.6091 42.5C80.3531 43.148 80.2251 43.848 80.2251 44.6C80.2251 45.344 80.3531 46.044 80.6091 46.7C80.8651 47.348 81.2171 47.92 81.6651 48.416C82.1211 48.904 82.6491 49.292 83.2491 49.58C83.8491 49.86 84.4891 50 85.1691 50C85.8971 50 86.5731 49.84 87.1971 49.52C87.8291 49.2 88.3691 48.776 88.8171 48.248L91.7691 49.856C91.0171 50.896 90.0691 51.732 88.9251 52.364C87.7811 52.996 86.5291 53.312 85.1691 53.312ZM98.6341 53.312C97.5301 53.312 96.5221 53.028 95.6101 52.46C94.7061 51.892 93.9821 51.132 93.4381 50.18C92.9021 49.22 92.6341 48.16 92.6341 47C92.6341 46.12 92.7901 45.3 93.1021 44.54C93.4141 43.772 93.8421 43.1 94.3861 42.524C94.9381 41.94 95.5781 41.484 96.3061 41.156C97.0341 40.828 97.8101 40.664 98.6341 40.664C99.7381 40.664 100.742 40.948 101.646 41.516C102.558 42.084 103.282 42.848 103.818 43.808C104.362 44.768 104.634 45.832 104.634 47C104.634 47.872 104.478 48.688 104.166 49.448C103.854 50.208 103.422 50.88 102.87 51.464C102.326 52.04 101.69 52.492 100.962 52.82C100.242 53.148 99.4661 53.312 98.6341 53.312ZM98.6341 50C99.1461 50 99.6061 49.864 100.014 49.592C100.422 49.312 100.742 48.944 100.974 48.488C101.206 48.032 101.322 47.536 101.322 47C101.322 46.448 101.198 45.944 100.95 45.488C100.71 45.024 100.386 44.656 99.9781 44.384C99.5701 44.112 99.1221 43.976 98.6341 43.976C98.1301 43.976 97.6741 44.116 97.2661 44.396C96.8581 44.676 96.5341 45.044 96.2941 45.5C96.0621 45.956 95.9461 46.456 95.9461 47C95.9461 47.568 96.0661 48.08 96.3061 48.536C96.5541 48.984 96.8821 49.34 97.2901 49.604C97.6981 49.868 98.1461 50 98.6341 50ZM115.357 41H118.669V53H115.345L115.189 51.752C114.877 52.216 114.477 52.592 113.989 52.88C113.501 53.168 112.929 53.312 112.273 53.312C111.377 53.312 110.541 53.144 109.765 52.808C108.989 52.472 108.305 52.008 107.713 51.416C107.121 50.824 106.657 50.14 106.321 49.364C105.993 48.58 105.829 47.74 105.829 46.844C105.829 45.988 105.985 45.188 106.297 44.444C106.609 43.7 107.049 43.044 107.617 42.476C108.185 41.908 108.837 41.464 109.573 41.144C110.317 40.824 111.117 40.664 111.973 40.664C112.709 40.664 113.369 40.82 113.953 41.132C114.545 41.444 115.061 41.84 115.501 42.32L115.357 41ZM112.189 50.132C112.733 50.132 113.225 49.992 113.665 49.712C114.105 49.432 114.453 49.056 114.709 48.584C114.965 48.104 115.093 47.576 115.093 47C115.093 46.416 114.965 45.888 114.709 45.416C114.453 44.944 114.105 44.568 113.665 44.288C113.225 44.008 112.733 43.868 112.189 43.868C111.637 43.868 111.137 44.008 110.689 44.288C110.241 44.568 109.885 44.948 109.621 45.428C109.357 45.9 109.225 46.424 109.225 47C109.225 47.576 109.357 48.104 109.621 48.584C109.893 49.056 110.253 49.432 110.701 49.712C111.149 49.992 111.645 50.132 112.189 50.132ZM127.95 49.208L130.926 50.816C130.374 51.568 129.682 52.172 128.85 52.628C128.018 53.084 127.11 53.312 126.126 53.312C125.022 53.312 124.014 53.028 123.102 52.46C122.198 51.892 121.474 51.132 120.93 50.18C120.394 49.22 120.126 48.16 120.126 47C120.126 46.12 120.282 45.3 120.594 44.54C120.906 43.772 121.334 43.1 121.878 42.524C122.43 41.94 123.07 41.484 123.798 41.156C124.526 40.828 125.302 40.664 126.126 40.664C127.11 40.664 128.018 40.892 128.85 41.348C129.682 41.804 130.374 42.416 130.926 43.184L127.95 44.792C127.702 44.528 127.418 44.328 127.098 44.192C126.786 44.048 126.462 43.976 126.126 43.976C125.614 43.976 125.154 44.116 124.746 44.396C124.346 44.676 124.026 45.048 123.786 45.512C123.554 45.968 123.438 46.464 123.438 47C123.438 47.528 123.558 48.02 123.798 48.476C124.038 48.932 124.358 49.3 124.758 49.58C125.166 49.86 125.622 50 126.126 50C126.47 50 126.798 49.928 127.11 49.784C127.422 49.64 127.702 49.448 127.95 49.208ZM143.783 45.368V53H140.471V46.28C140.471 45.856 140.367 45.476 140.159 45.14C139.959 44.796 139.687 44.524 139.343 44.324C139.007 44.124 138.631 44.024 138.215 44.024C137.799 44.024 137.419 44.124 137.075 44.324C136.731 44.524 136.459 44.796 136.259 45.14C136.059 45.476 135.959 45.856 135.959 46.28V53H132.647L132.635 35H135.947L135.959 41.888C136.359 41.504 136.827 41.204 137.363 40.988C137.907 40.772 138.479 40.664 139.079 40.664C139.951 40.664 140.739 40.876 141.443 41.3C142.155 41.724 142.723 42.292 143.147 43.004C143.571 43.708 143.783 44.496 143.783 45.368Z" fill="white"/>
</svg>
