<svg width="1080" height="1080" viewBox="0 0 1080 1080" fill="none" xmlns="http://www.w3.org/2000/svg">
<path d="M992.854 730.031C968.422 640.703 892.583 582.557 799.896 582.557H761.135C710.578 572.443 693.729 522.724 687.828 494.073C719.005 448.568 743.443 392.948 757.766 331.432C763.667 306.151 767.036 280.026 767.036 253.901C767.88 114.859 666.766 1.09375 541.214 1.09375C481.391 1.09375 425.776 26.375 382.802 72.724C338.141 120.755 313.708 185.646 313.708 253.901C313.708 340.703 344.042 437.615 392.073 505.87C383.646 534.521 364.266 573.286 320.448 581.714H280.005C187.313 581.714 112.323 639.859 87.0417 729.188C63.4479 813.458 85.3594 1053.63 86.2031 1063.74C87.0417 1072.17 94.625 1078.91 103.052 1078.91C103.896 1078.91 103.896 1078.91 104.74 1078.91H974.318C975.161 1078.91 975.161 1078.91 976.005 1078.91C984.432 1078.91 992.016 1072.17 992.854 1063.74C994.542 1054.47 1016.45 814.297 992.854 730.031ZM350.781 300.25C351.625 299.411 352.469 298.568 353.313 297.724L451.896 160.365C468.75 173.005 498.24 194.073 534.474 210.083H535.318C536.156 210.083 620.422 234.521 677.719 199.969C694.568 189.859 707.208 175.531 715.635 158.677C728.276 187.328 735.016 220.198 735.016 253.901C735.016 276.656 732.49 300.25 726.589 323.005C706.365 406.432 667.604 478.906 619.578 523.568C594.297 547.161 563.12 558.12 529.417 555.589C492.344 552.219 455.266 531.151 429.99 498.286C387.859 446.88 359.208 372.724 350.781 300.25ZM682.776 567.385L541.214 687.052L400.495 567.385C407.24 557.276 413.135 547.161 417.349 537.052C447.682 568.229 486.443 587.615 526.047 590.984C530.26 590.984 534.474 591.828 538.688 591.828C576.604 591.828 612.839 577.5 642.328 550.531C649.911 543.792 656.651 536.208 663.396 528.625C667.604 541.266 673.505 554.745 682.776 567.385ZM179.729 927.219C179.729 936.49 172.99 944.073 163.724 944.917H162.88C153.609 944.917 146.026 937.333 146.026 928.906C142.656 843.792 146.026 788.177 155.297 755.313C172.146 692.948 205.854 660.083 263.995 647.443C273.26 645.76 281.688 651.656 284.214 660.083C285.901 669.354 280.005 677.781 271.578 680.307C226.073 689.578 202.484 714.016 188.156 763.734C178.891 793.229 176.359 847.167 179.729 927.219ZM399.656 891.828L380.276 904.469L387.016 924.693C392.073 938.177 387.016 953.344 376.063 962.615C370.161 967.672 362.578 969.354 354.995 969.354C348.255 969.354 342.354 967.672 336.458 963.458L313.708 948.286L290.958 963.458C285.057 967.672 279.161 969.354 272.417 969.354C264.833 969.354 258.094 966.828 251.354 962.615C239.557 953.344 235.344 938.177 240.401 924.693L247.141 904.469L226.917 890.984C214.276 882.557 209.224 867.391 213.438 853.063C217.651 838.74 231.13 829.469 245.453 829.469H273.26L280.844 806.714C285.901 793.229 298.542 783.964 312.865 783.964C327.188 783.964 339.828 793.229 344.885 806.714L353.313 829.469H381.115C399.656 829.469 414.823 844.635 414.823 863.177C414.823 875.818 408.922 885.927 399.656 891.828ZM356.682 606.151C364.266 601.938 371.849 597.724 377.745 592.667L530.26 722.443C533.63 724.974 537 726.656 541.214 726.656C545.427 726.656 548.797 724.974 552.167 722.443L705.526 592.667C712.266 597.724 719.005 602.781 726.589 606.151L541.214 762.896L356.682 606.151ZM868.99 918.792C868.99 942.391 849.609 961.771 826.021 961.771H727.432C703.839 961.771 684.458 942.391 684.458 918.792V853.063C684.458 829.469 703.839 810.083 727.432 810.083H826.021C849.609 810.083 868.99 829.469 868.99 853.063V918.792ZM936.401 928.906C936.401 938.177 928.818 944.917 919.547 944.917C910.281 944.917 902.698 936.49 903.542 927.219C906.068 866.547 906.911 799.13 897.641 763.734C884.161 714.016 859.724 689.578 814.224 680.307C804.953 678.625 799.057 669.354 801.583 660.083C803.266 650.818 812.536 644.917 821.807 647.443C879.948 659.24 912.807 692.948 930.505 755.313C940.615 794.917 938.927 863.177 936.401 928.906Z" fill="black"/>
<path d="M314.552 818.51L298.542 863.177H247.141L288.427 890.984L272.417 936.49L314.552 908.682L355.839 936.49L339.828 890.984L381.115 863.177H329.719L314.552 818.51Z" fill="black"/>
</svg>
