<svg width="51" height="51" viewBox="0 0 51 51" fill="none" xmlns="http://www.w3.org/2000/svg">
<circle cx="25.4048" cy="25.6665" r="25" fill="#56042C"/>
<path d="M24.1548 25.6665C26.9162 25.6665 29.1548 23.4279 29.1548 20.6665C29.1548 17.9051 26.9162 15.6665 24.1548 15.6665C21.3934 15.6665 19.1548 17.9051 19.1548 20.6665C19.1548 23.4279 21.3934 25.6665 24.1548 25.6665Z" fill="white"/>
<path d="M24.5923 28.1792C21.1798 28.0542 14.1548 29.7542 14.1548 33.1667V34.4167C14.1548 35.1042 14.7173 35.6667 15.4048 35.6667H26.0798C22.9923 32.2167 24.5423 28.3042 24.5923 28.1792ZM35.9423 33.1917C36.5298 32.1917 36.8173 30.9792 36.5423 29.6667C36.1173 27.6167 34.3923 25.9792 32.3173 25.7167C29.0298 25.2917 26.2548 28.0542 26.6923 31.3417C26.9673 33.4167 28.5923 35.1417 30.6423 35.5667C31.9548 35.8417 33.1673 35.5542 34.1673 34.9667L36.4923 37.2917C36.726 37.5254 37.043 37.6567 37.3735 37.6567C37.7041 37.6567 38.0211 37.5254 38.2548 37.2917C38.4885 37.0579 38.6198 36.7409 38.6198 36.4104C38.6198 36.0799 38.4885 35.7629 38.2548 35.5292L35.9423 33.1917V33.1917ZM31.6548 33.1667C30.2798 33.1667 29.1548 32.0417 29.1548 30.6667C29.1548 29.2917 30.2798 28.1667 31.6548 28.1667C33.0298 28.1667 34.1548 29.2917 34.1548 30.6667C34.1548 32.0417 33.0298 33.1667 31.6548 33.1667Z" fill="white"/>
</svg>
