<svg width="50" height="50" viewBox="0 0 50 50" fill="none" xmlns="http://www.w3.org/2000/svg">
<circle cx="25" cy="25" r="25" fill="#56042C"/>
<path d="M31.0772 37.3425C30.7217 37.5284 30.3662 37.5497 30.0108 37.4064C29.6553 37.2624 29.3925 36.9961 29.2225 36.6074L26.4406 30.0676L24.2845 33.3629C24.0218 33.7684 23.674 33.8952 23.2413 33.7431C22.8085 33.591 22.5922 33.2699 22.5922 32.7798V19.7761C22.5922 19.3537 22.7659 19.0495 23.1133 18.8636C23.4614 18.6777 23.79 18.72 24.0991 18.9903L33.465 27.0511C33.8205 27.3384 33.9247 27.7102 33.7776 28.1664C33.631 28.6227 33.3337 28.8508 32.8855 28.8508H28.9907L31.7495 35.3147C31.9195 35.7034 31.939 36.092 31.8079 36.4807C31.6762 36.8694 31.4327 37.1567 31.0772 37.3425V37.3425Z" fill="white"/>
<path d="M27.7607 13.5273L25.8498 15.8694" stroke="white" stroke-linecap="round" stroke-linejoin="round"/>
<path d="M15.465 20.1449L18.4724 19.8401M17.128 14.6055L19.4701 16.5164M22.221 11.8646L22.5259 14.872" stroke="white" stroke-linecap="round" stroke-linejoin="round"/>
</svg>
